<?xml version="1.0" encoding="utf-8"?>
<!-- Generator: Adobe Illustrator 18.1.0, SVG Export Plug-In . SVG Version: 6.00 Build 0)  -->
<!DOCTYPE svg PUBLIC "-//W3C//DTD SVG 1.1//EN" "http://www.w3.org/Graphics/SVG/1.1/DTD/svg11.dtd">
<svg version="1.1" id="Layer_1" xmlns="http://www.w3.org/2000/svg" xmlns:xlink="http://www.w3.org/1999/xlink" x="0px" y="0px"
	 viewBox="0 0 1000 1000" enable-background="new 0 0 1000 1000" xml:space="preserve">
<g>
	<g>
		<g>
			<path fill="#FFFFFF" d="M503.3,480c-54.1,0-98.2,44-98.2,98.2s44,98.2,98.2,98.2c54.1,0,98.1-44,98.1-98.2S557.4,480,503.3,480z"
				/>
			<path fill="#FFFFFF" d="M863.8,875.6L519.1,187.2l31.3-61.8c4.4-8.7,0.9-19.1-7.8-23.5c-8.7-4.4-19.1-0.9-23.5,7.8L500,148
				l-19.1-38.3c-4.4-8.7-14.8-12.2-23.5-7.8c-8.7,4.4-12.2,14.8-7.8,23.5l31.3,61.8L136.2,875.6c-2.6,5.2-2.6,12.2,0.9,16.5
				c3.5,5.2,8.7,7.8,14.8,7.8h208.9h278.5h208.9c6.1,0,11.3-3.5,14.8-7.8C866.4,887.8,866.4,880.9,863.8,875.6z M522.8,706.8v35.6
				h52.5c10.8,0,19.5,8.7,19.5,19.5c0,10.8-8.7,19.5-19.5,19.5h-52.5v52.6c0,10.8-8.7,19.5-19.5,19.5c-10.8,0-19.5-8.7-19.5-19.5
				v-52.6h-52.5c-10.8,0-19.5-8.7-19.5-19.5c0-10.8,8.7-19.5,19.5-19.5h52.5v-35.6c-66.4-9.5-117.7-66.6-117.7-135.7
				c0-75.7,61.6-137.2,137.2-137.2c75.6,0,137.2,61.6,137.2,137.2C640.5,640.2,589.3,697.3,522.8,706.8z"/>
		</g>
	</g>
</g>
</svg>
